# xmcd
#
# Track frame offsets:
#	150
#	18772
#	36722
#	58382
#	80210
#	96997
#	117767
#	136785
#	156890
#	175050
#	191690
#
# Disc length: 2906 seconds
#
# Revision: 0
# Processed by: cddbd v1.5.2PL0 Copyright (c) Steve Scherf et al.
# Submitted via: EasyCDDAExtractor 16.0.8.1
#
DISCID=970b580b
DTITLE=Rai
DYEAR=2000
DGENRE=Pop
TTITLE0=Give A Smile To The Planet
TTITLE1=Hold On
TTITLE2=One Man, One Woman
TTITLE3=You Keep Me Up At Night
TTITLE4=Here For You
TTITLE5=B Sting
TTITLE6=Thinking About You
TTITLE7=Inspiration
TTITLE8=Candle Burning Fire
TTITLE9=Crying No More
TTITLE10=Return To The Planet Of The Force
EXTD=
EXTT0=
EXTT1=
EXTT2=
EXTT3=
EXTT4=
EXTT5=
EXTT6=
EXTT7=
EXTT8=
EXTT9=
EXTT10=
PLAYORDER=
